<svg xmlns="http://www.w3.org/2000/svg" xmlns:xlink="http://www.w3.org/1999/xlink" width="100" zoomAndPan="magnify" viewBox="0 0 75 74.999997" height="100" preserveAspectRatio="xMidYMid meet" version="1.0"><defs><clipPath id="047637119c"><path d="M 0 3.546875 L 75 3.546875 L 75 74.796875 L 0 74.796875 Z M 0 3.546875 " clip-rule="nonzero"/></clipPath></defs><g clip-path="url(#047637119c)"><path fill="#f50057" d="M 74.789062 23.867188 C 74.808594 23.839844 74.828125 23.816406 74.839844 23.785156 C 74.898438 23.644531 74.898438 23.488281 74.839844 23.347656 C 74.828125 23.3125 74.808594 23.289062 74.789062 23.261719 C 74.769531 23.230469 74.757812 23.195312 74.734375 23.167969 L 70.441406 18.421875 C 71.015625 18.066406 71.40625 17.4375 71.40625 16.710938 C 71.40625 15.597656 70.496094 14.691406 69.382812 14.691406 L 65.242188 14.691406 L 65.242188 12.703125 C 65.242188 12.46875 65.101562 12.253906 64.886719 12.160156 L 59.546875 9.832031 C 59.472656 9.796875 59.390625 9.78125 59.308594 9.78125 L 57.601562 9.78125 L 57.601562 8.003906 C 58.570312 7.742188 59.289062 6.867188 59.289062 5.816406 C 59.289062 4.566406 58.265625 3.546875 57.007812 3.546875 C 55.753906 3.546875 54.730469 4.566406 54.730469 5.816406 C 54.730469 6.863281 55.449219 7.738281 56.414062 8.003906 L 56.414062 9.78125 L 54.710938 9.78125 C 54.628906 9.78125 54.546875 9.796875 54.472656 9.832031 L 49.132812 12.160156 C 48.917969 12.253906 48.777344 12.46875 48.777344 12.703125 L 48.777344 14.691406 L 44.636719 14.691406 C 43.519531 14.691406 42.613281 15.597656 42.613281 16.710938 C 42.613281 17.4375 43 18.066406 43.578125 18.421875 L 39.285156 23.167969 C 39.261719 23.195312 39.246094 23.230469 39.230469 23.261719 C 39.210938 23.289062 39.191406 23.3125 39.175781 23.34375 C 39.121094 23.484375 39.121094 23.644531 39.175781 23.785156 C 39.191406 23.816406 39.210938 23.839844 39.230469 23.867188 C 39.246094 23.898438 39.261719 23.933594 39.285156 23.960938 L 43.578125 28.707031 C 43 29.0625 42.613281 29.691406 42.613281 30.417969 C 42.613281 31.53125 43.519531 32.433594 44.636719 32.433594 L 48.234375 32.433594 L 48.234375 34.964844 C 48.234375 35.289062 48.5 35.554688 48.828125 35.554688 L 51.152344 35.554688 L 51.152344 45.097656 C 48.660156 42.800781 41.546875 37.734375 27.382812 37.734375 C 9.46875 37.734375 2.832031 45.847656 2.558594 46.191406 C 2.476562 46.296875 2.429688 46.425781 2.429688 46.558594 L 2.429688 70.269531 L 0.707031 70.269531 C 0.378906 70.269531 0.113281 70.535156 0.113281 70.863281 L 0.113281 74.1875 C 0.113281 74.515625 0.378906 74.777344 0.707031 74.777344 L 64.847656 74.777344 C 65.175781 74.777344 65.4375 74.515625 65.4375 74.1875 L 65.4375 70.863281 C 65.4375 70.535156 65.175781 70.269531 64.847656 70.269531 L 62.867188 70.269531 L 62.867188 35.554688 L 65.191406 35.554688 C 65.519531 35.554688 65.785156 35.292969 65.785156 34.964844 L 65.785156 32.4375 L 69.382812 32.4375 C 70.5 32.4375 71.40625 31.53125 71.40625 30.417969 C 71.40625 29.691406 71.019531 29.0625 70.441406 28.707031 L 74.734375 23.960938 C 74.757812 23.933594 74.769531 23.898438 74.789062 23.867188 Z M 55.917969 5.816406 C 55.917969 5.21875 56.40625 4.730469 57.007812 4.730469 C 57.613281 4.730469 58.101562 5.21875 58.101562 5.816406 C 58.101562 6.417969 57.613281 6.90625 57.007812 6.90625 C 56.40625 6.90625 55.917969 6.417969 55.917969 5.816406 Z M 61.597656 28.398438 L 61.597656 24.15625 L 64.597656 24.15625 L 64.597656 28.398438 Z M 57.601562 28.398438 L 57.601562 24.15625 L 60.410156 24.15625 L 60.410156 28.398438 Z M 53.609375 28.398438 L 53.609375 24.15625 L 56.414062 24.15625 L 56.414062 28.398438 Z M 49.417969 28.398438 L 49.417969 24.15625 L 52.421875 24.15625 L 52.421875 28.398438 Z M 45.230469 28.398438 L 45.230469 24.15625 L 48.234375 24.15625 L 48.234375 28.398438 Z M 52.421875 18.730469 L 52.421875 22.972656 L 49.417969 22.972656 L 49.417969 18.730469 Z M 56.414062 18.730469 L 56.414062 22.972656 L 53.609375 22.972656 L 53.609375 18.730469 Z M 60.410156 18.730469 L 60.410156 22.972656 L 57.601562 22.972656 L 57.601562 18.730469 Z M 64.597656 18.730469 L 64.597656 22.972656 L 61.597656 22.972656 L 61.597656 18.730469 Z M 68.789062 18.730469 L 68.789062 22.972656 L 65.785156 22.972656 L 65.785156 18.730469 Z M 48.234375 22.972656 L 45.230469 22.972656 L 45.230469 18.730469 L 48.234375 18.730469 Z M 44.042969 22.972656 L 41.0625 22.972656 L 44.042969 19.675781 Z M 44.042969 24.15625 L 44.042969 27.453125 L 41.0625 24.15625 Z M 65.785156 24.15625 L 68.789062 24.15625 L 68.789062 28.398438 L 65.785156 28.398438 Z M 69.976562 24.15625 L 72.957031 24.15625 L 69.976562 27.453125 Z M 69.976562 22.972656 L 69.976562 19.675781 L 72.957031 22.972656 Z M 49.964844 13.089844 L 54.832031 10.964844 L 59.183594 10.964844 L 64.054688 13.089844 L 64.054688 14.695312 L 49.964844 14.695312 Z M 44.636719 15.878906 L 69.382812 15.878906 C 69.84375 15.878906 70.21875 16.25 70.21875 16.710938 C 70.21875 17.171875 69.84375 17.546875 69.382812 17.546875 L 44.636719 17.546875 C 44.175781 17.546875 43.800781 17.171875 43.800781 16.710938 C 43.800781 16.25 44.175781 15.878906 44.636719 15.878906 Z M 3.617188 46.78125 C 4.609375 45.6875 11.40625 38.917969 27.382812 38.917969 C 43.359375 38.917969 50.160156 45.6875 51.152344 46.78125 L 51.152344 70.273438 L 49.964844 70.273438 L 49.964844 51.316406 C 49.964844 50.988281 49.699219 50.722656 49.371094 50.722656 L 5.414062 50.722656 C 5.085938 50.722656 4.820312 50.988281 4.820312 51.316406 L 4.820312 70.273438 L 3.617188 70.273438 Z M 35.050781 70.273438 L 35.050781 61.359375 L 41.3125 61.359375 L 41.3125 70.273438 Z M 32.78125 70.273438 L 32.78125 60.769531 C 32.78125 60.441406 32.515625 60.175781 32.1875 60.175781 L 22.578125 60.175781 C 22.25 60.175781 21.984375 60.441406 21.984375 60.769531 L 21.984375 70.273438 L 20.90625 70.273438 L 20.90625 60.769531 C 20.90625 60.441406 20.640625 60.175781 20.3125 60.175781 L 6.007812 60.175781 L 6.007812 58.464844 L 48.777344 58.464844 L 48.777344 60.175781 L 34.457031 60.175781 C 34.128906 60.175781 33.863281 60.441406 33.863281 60.769531 L 33.863281 70.273438 Z M 31.59375 70.273438 L 23.171875 70.273438 L 23.171875 61.359375 L 31.59375 61.359375 Z M 6.007812 70.273438 L 6.007812 61.359375 L 12.269531 61.359375 L 12.269531 70.273438 Z M 13.457031 61.359375 L 19.71875 61.359375 L 19.71875 70.273438 L 13.457031 70.273438 Z M 48.777344 57.28125 L 6.007812 57.28125 L 6.007812 51.90625 L 48.777344 51.90625 Z M 42.496094 61.359375 L 48.777344 61.359375 L 48.777344 70.273438 L 42.496094 70.273438 Z M 64.253906 73.597656 L 1.300781 73.597656 L 1.300781 71.457031 L 64.253906 71.457031 Z M 58.714844 70.273438 L 55.304688 70.273438 L 55.304688 62.59375 L 58.714844 62.59375 Z M 61.679688 70.273438 L 59.902344 70.273438 L 59.902344 62 C 59.902344 61.671875 59.636719 61.410156 59.308594 61.410156 L 54.710938 61.410156 C 54.382812 61.410156 54.117188 61.671875 54.117188 62 L 54.117188 70.273438 L 52.339844 70.273438 L 52.339844 35.554688 L 61.679688 35.554688 Z M 64.597656 34.371094 L 49.417969 34.371094 L 49.417969 32.4375 L 64.597656 32.4375 Z M 69.382812 31.253906 L 44.636719 31.253906 C 44.175781 31.253906 43.800781 30.878906 43.800781 30.417969 C 43.800781 29.957031 44.175781 29.582031 44.636719 29.582031 L 69.382812 29.582031 C 69.84375 29.582031 70.21875 29.957031 70.21875 30.417969 C 70.21875 30.878906 69.84375 31.253906 69.382812 31.253906 Z M 69.382812 31.253906 " fill-opacity="1" fill-rule="nonzero"/></g><path fill="#f50057" d="M 16.023438 24.527344 C 15.753906 27.949219 15.75 32.894531 17.898438 33.296875 C 18 33.316406 18.101562 33.324219 18.207031 33.324219 C 18.574219 33.324219 18.933594 33.199219 19.257812 32.960938 C 20.527344 32.023438 21.257812 29.25 21.632812 27.253906 C 25.726562 29 31.230469 31.183594 32.65625 31.746094 C 32.734375 32.574219 33.015625 34.417969 34.003906 35.199219 C 34.320312 35.453125 34.6875 35.582031 35.082031 35.582031 C 35.195312 35.582031 35.316406 35.570312 35.4375 35.546875 C 35.960938 35.445312 36.390625 35.15625 36.683594 34.703125 C 37.402344 33.589844 37.128906 31.714844 36.980469 30.984375 C 37.722656 29.996094 39.679688 27.109375 38.148438 25.863281 C 37.789062 25.570312 37.347656 25.449219 36.875 25.507812 C 36.644531 25.535156 36.417969 25.613281 36.191406 25.710938 C 35.964844 24.914062 35.453125 24.121094 34.449219 24.121094 C 33.542969 24.121094 33.035156 24.808594 32.777344 25.558594 C 30.5 23.226562 26.707031 19.609375 23.488281 17.800781 C 23.820312 16.816406 24.421875 14.671875 23.871094 13.453125 C 23.679688 13.035156 23.367188 12.738281 22.960938 12.589844 C 21.183594 11.941406 18.527344 14.722656 17.597656 15.785156 C 15.378906 15.277344 13.128906 14.996094 11.484375 15.226562 C 11.46875 15.226562 11.460938 15.222656 11.445312 15.222656 C 11.4375 15.226562 11.429688 15.230469 11.417969 15.234375 C 10.363281 15.390625 9.558594 15.757812 9.199219 16.433594 C 7.722656 19.207031 14.023438 23.316406 16.023438 24.527344 Z M 34.449219 25.304688 C 34.886719 25.304688 35.058594 26.007812 35.125 26.414062 C 34.816406 26.675781 34.542969 26.957031 34.332031 27.191406 C 34.179688 27.027344 33.976562 26.8125 33.757812 26.578125 C 33.824219 26.089844 34.03125 25.304688 34.449219 25.304688 Z M 22.554688 13.699219 C 22.625 13.726562 22.714844 13.777344 22.789062 13.941406 C 23.097656 14.621094 22.773438 16.148438 22.414062 17.265625 C 22.210938 17.175781 22.011719 17.085938 21.816406 17.015625 C 20.929688 16.699219 19.9375 16.386719 18.902344 16.109375 C 20.136719 14.804688 21.8125 13.433594 22.554688 13.699219 Z M 14.191406 16.417969 C 14.339844 17.1875 15.035156 17.832031 15.734375 18.453125 L 14.351562 18.910156 C 13.285156 18.242188 12.609375 17.394531 12.285156 16.347656 C 12.835938 16.324219 13.472656 16.347656 14.191406 16.417969 Z M 10.246094 16.988281 C 10.363281 16.769531 10.65625 16.605469 11.089844 16.496094 C 11.496094 17.992188 12.464844 19.191406 13.980469 20.070312 C 14.070312 20.121094 14.171875 20.148438 14.277344 20.148438 C 14.339844 20.148438 14.402344 20.140625 14.464844 20.117188 L 17.070312 19.257812 C 17.265625 19.191406 17.414062 19.03125 17.460938 18.828125 C 17.507812 18.628906 17.445312 18.417969 17.296875 18.273438 C 17.0625 18.046875 16.820312 17.832031 16.582031 17.621094 C 16.175781 17.257812 15.78125 16.90625 15.550781 16.589844 C 16.207031 16.695312 16.910156 16.839844 17.640625 17.007812 C 17.640625 17.007812 17.640625 17.007812 17.640625 17.011719 C 18.835938 17.292969 20.109375 17.660156 21.414062 18.128906 C 26.105469 19.8125 33.835938 28.402344 33.914062 28.488281 C 34.03125 28.621094 34.195312 28.691406 34.382812 28.6875 C 34.5625 28.679688 34.726562 28.589844 34.832031 28.449219 C 35.304688 27.8125 36.320312 26.769531 37.023438 26.679688 C 37.175781 26.660156 37.289062 26.691406 37.398438 26.78125 C 37.886719 27.175781 36.996094 29.058594 35.878906 30.472656 C 35.765625 30.613281 35.722656 30.800781 35.765625 30.980469 C 35.96875 31.808594 36.125 33.382812 35.683594 34.0625 C 35.566406 34.246094 35.421875 34.34375 35.214844 34.382812 C 35.023438 34.417969 34.882812 34.386719 34.742188 34.273438 C 34.140625 33.796875 33.851562 32.199219 33.816406 31.304688 C 33.804688 31.070312 33.65625 30.863281 33.441406 30.777344 C 33.371094 30.75 26.546875 28.074219 21.835938 26.050781 C 21.90625 25.585938 21.945312 25.242188 21.960938 25.113281 C 21.996094 24.789062 21.761719 24.496094 21.433594 24.460938 C 21.109375 24.421875 20.816406 24.65625 20.78125 24.984375 C 20.527344 27.246094 19.703125 31.160156 18.550781 32.007812 C 18.355469 32.152344 18.214844 32.148438 18.113281 32.132812 C 17.164062 31.953125 16.933594 28.214844 17.238281 24.320312 C 17.242188 24.296875 17.242188 24.277344 17.242188 24.253906 C 17.300781 23.546875 17.371094 22.839844 17.460938 22.144531 C 17.503906 21.820312 17.277344 21.523438 16.953125 21.480469 C 16.625 21.4375 16.328125 21.667969 16.285156 21.992188 C 16.246094 22.3125 16.195312 22.730469 16.144531 23.210938 C 12.269531 20.785156 9.667969 18.074219 10.246094 16.988281 Z M 10.246094 16.988281 " fill-opacity="1" fill-rule="nonzero"/><path fill="#f50057" d="M 19.535156 20.800781 C 19.535156 20.960938 19.476562 21.101562 19.363281 21.21875 C 19.246094 21.332031 19.105469 21.390625 18.941406 21.390625 C 18.777344 21.390625 18.636719 21.332031 18.523438 21.21875 C 18.40625 21.101562 18.347656 20.960938 18.347656 20.800781 C 18.347656 20.636719 18.40625 20.496094 18.523438 20.382812 C 18.636719 20.265625 18.777344 20.207031 18.941406 20.207031 C 19.105469 20.207031 19.246094 20.265625 19.363281 20.382812 C 19.476562 20.496094 19.535156 20.636719 19.535156 20.800781 Z M 19.535156 20.800781 " fill-opacity="1" fill-rule="nonzero"/><path fill="#f50057" d="M 22.378906 22.257812 C 22.378906 22.421875 22.320312 22.5625 22.203125 22.675781 C 22.089844 22.792969 21.949219 22.851562 21.785156 22.851562 C 21.621094 22.851562 21.480469 22.792969 21.367188 22.675781 C 21.25 22.5625 21.191406 22.421875 21.191406 22.257812 C 21.191406 22.09375 21.25 21.957031 21.367188 21.839844 C 21.480469 21.726562 21.621094 21.667969 21.785156 21.667969 C 21.949219 21.667969 22.089844 21.726562 22.203125 21.839844 C 22.320312 21.957031 22.378906 22.09375 22.378906 22.257812 Z M 22.378906 22.257812 " fill-opacity="1" fill-rule="nonzero"/><path fill="#f50057" d="M 25.039062 23.960938 C 25.039062 24.125 24.980469 24.265625 24.863281 24.378906 C 24.75 24.496094 24.609375 24.554688 24.445312 24.554688 C 24.28125 24.554688 24.140625 24.496094 24.023438 24.378906 C 23.910156 24.265625 23.851562 24.125 23.851562 23.960938 C 23.851562 23.796875 23.910156 23.660156 24.023438 23.542969 C 24.140625 23.429688 24.28125 23.371094 24.445312 23.371094 C 24.609375 23.371094 24.75 23.429688 24.863281 23.542969 C 24.980469 23.660156 25.039062 23.796875 25.039062 23.960938 Z M 25.039062 23.960938 " fill-opacity="1" fill-rule="nonzero"/><path fill="#f50057" d="M 27.507812 25.304688 C 27.507812 25.46875 27.453125 25.605469 27.335938 25.722656 C 27.21875 25.839844 27.078125 25.894531 26.917969 25.894531 C 26.753906 25.894531 26.613281 25.839844 26.496094 25.722656 C 26.378906 25.605469 26.324219 25.46875 26.324219 25.304688 C 26.324219 25.140625 26.378906 25 26.496094 24.886719 C 26.613281 24.769531 26.753906 24.710938 26.917969 24.710938 C 27.078125 24.710938 27.21875 24.769531 27.335938 24.886719 C 27.453125 25 27.507812 25.140625 27.507812 25.304688 Z M 27.507812 25.304688 " fill-opacity="1" fill-rule="nonzero"/><path fill="#f50057" d="M 29.996094 26.714844 C 29.996094 26.878906 29.9375 27.019531 29.824219 27.132812 C 29.707031 27.25 29.566406 27.304688 29.402344 27.304688 C 29.238281 27.304688 29.101562 27.25 28.984375 27.132812 C 28.867188 27.019531 28.808594 26.878906 28.808594 26.714844 C 28.808594 26.550781 28.867188 26.410156 28.984375 26.296875 C 29.101562 26.179688 29.238281 26.121094 29.402344 26.121094 C 29.566406 26.121094 29.707031 26.179688 29.824219 26.296875 C 29.9375 26.410156 29.996094 26.550781 29.996094 26.714844 Z M 29.996094 26.714844 " fill-opacity="1" fill-rule="nonzero"/></svg>