<svg xmlns="http://www.w3.org/2000/svg" xmlns:xlink="http://www.w3.org/1999/xlink" width="100" zoomAndPan="magnify" viewBox="0 0 75 74.999997" height="100" preserveAspectRatio="xMidYMid meet" version="1.0"><defs><clipPath id="9413b6228f"><path d="M 0 65 L 75 65 L 75 67.671875 L 0 67.671875 Z M 0 65 " clip-rule="nonzero"/></clipPath></defs><path fill="#f50057" d="M 6.296875 36.757812 L 3.292969 38.011719 C 2.425781 38.371094 1.796875 39.105469 1.570312 40.023438 C 1.339844 40.941406 1.546875 41.886719 2.140625 42.621094 C 3.128906 43.839844 4.417969 44.757812 5.851562 45.300781 L 4.828125 48.40625 C 4.617188 49.035156 4.796875 49.734375 5.277344 50.1875 C 5.597656 50.488281 6.011719 50.644531 6.429688 50.644531 C 6.648438 50.644531 6.867188 50.601562 7.074219 50.515625 L 10.226562 49.199219 C 11.261719 48.769531 12.09375 47.972656 12.574219 46.957031 L 13.191406 45.652344 L 20.035156 45.292969 C 22.351562 45.167969 24.609375 44.65625 26.75 43.761719 L 31.378906 41.828125 L 28.378906 50.902344 C 28.148438 51.605469 28.339844 52.355469 28.875 52.859375 C 29.230469 53.191406 29.675781 53.363281 30.132812 53.363281 C 30.371094 53.363281 30.617188 53.316406 30.851562 53.21875 L 37.941406 50.257812 C 39.128906 49.761719 40.089844 48.847656 40.640625 47.679688 L 44.316406 39.921875 C 46.390625 39.851562 48.417969 39.410156 50.339844 38.609375 L 52.507812 37.703125 C 53.71875 37.199219 54.292969 35.796875 53.792969 34.578125 L 53.054688 32.78125 L 72.113281 24.828125 C 73.140625 24.398438 73.9375 23.59375 74.363281 22.558594 C 74.789062 21.527344 74.789062 20.390625 74.363281 19.355469 C 73.582031 17.453125 71.5625 16.441406 69.636719 16.867188 C 66.171875 14.257812 61.617188 13.667969 57.589844 15.351562 L 47.054688 19.746094 L 33.0625 14.78125 C 31.851562 14.351562 30.53125 14.386719 29.34375 14.882812 L 22.253906 17.851562 C 21.578125 18.136719 21.140625 18.773438 21.113281 19.515625 C 21.089844 20.253906 21.480469 20.921875 22.140625 21.25 L 31.808594 26.109375 L 18.230469 31.777344 L 9.488281 24.5625 C 8.132812 23.441406 6.28125 23.167969 4.660156 23.84375 L 1.453125 25.179688 C 0.773438 25.464844 0.273438 26.039062 0.0742188 26.753906 C -0.121094 27.46875 0.015625 28.21875 0.457031 28.816406 Z M 10.433594 45.925781 C 10.203125 46.40625 9.808594 46.785156 9.320312 46.988281 L 7.554688 47.726562 L 9.351562 42.28125 L 12.847656 40.820312 Z M 38.5 46.648438 C 38.199219 47.28125 37.679688 47.777344 37.035156 48.046875 L 30.992188 50.570312 L 35.105469 38.121094 C 35.132812 38.035156 35.195312 37.96875 35.277344 37.9375 L 44.4375 34.113281 Z M 49.429688 36.398438 C 48.164062 36.929688 46.84375 37.273438 45.492188 37.433594 L 47.554688 33.082031 C 47.605469 32.976562 47.640625 32.871094 47.664062 32.765625 L 50.066406 31.761719 L 51.601562 35.492188 Z M 58.496094 17.5625 C 59.726562 17.046875 61.015625 16.796875 62.296875 16.796875 C 63.886719 16.796875 65.464844 17.1875 66.890625 17.941406 L 60.296875 20.695312 C 59.691406 20.949219 59.402344 21.648438 59.652344 22.257812 C 59.84375 22.71875 60.285156 22.996094 60.75 22.996094 C 60.902344 22.996094 61.054688 22.96875 61.203125 22.90625 L 69.84375 19.300781 C 70.75 18.921875 71.792969 19.355469 72.171875 20.269531 C 72.351562 20.714844 72.351562 21.203125 72.171875 21.644531 C 71.988281 22.085938 71.644531 22.433594 71.207031 22.617188 L 52.128906 30.578125 C 51.542969 29.546875 50.273438 29.085938 49.15625 29.550781 L 45.621094 31.027344 L 34.367188 35.726562 C 33.652344 36.023438 33.097656 36.621094 32.851562 37.363281 L 32.371094 38.824219 L 25.839844 41.550781 C 23.949219 42.339844 21.953125 42.792969 19.910156 42.902344 L 14.355469 43.195312 L 15.992188 39.742188 C 16.257812 39.179688 16.15625 38.519531 15.730469 38.066406 C 15.300781 37.613281 14.65625 37.476562 14.085938 37.714844 L 8.445312 40.070312 C 7.808594 40.335938 7.316406 40.867188 7.097656 41.523438 L 6.601562 43.027344 C 5.59375 42.628906 4.683594 41.972656 3.980469 41.105469 C 3.824219 40.914062 3.847656 40.710938 3.871094 40.609375 C 3.898438 40.503906 3.976562 40.316406 4.203125 40.222656 Z M 24.21875 19.621094 L 30.257812 17.09375 C 30.898438 16.824219 31.617188 16.804688 32.273438 17.035156 L 43.769531 21.117188 L 34.714844 24.898438 Z M 5.570312 26.054688 C 5.863281 25.929688 6.171875 25.871094 6.480469 25.871094 C 7.019531 25.871094 7.550781 26.054688 7.984375 26.414062 L 15.742188 32.816406 L 14.449219 33.355469 L 8.558594 35.8125 L 2.363281 27.390625 Z M 5.570312 26.054688 " fill-opacity="1" fill-rule="nonzero"/><path fill="#f50057" d="M 51.492188 26.636719 C 51.683594 27.097656 52.125 27.375 52.589844 27.375 C 52.742188 27.375 52.894531 27.34375 53.042969 27.28125 C 53.648438 27.03125 53.9375 26.332031 53.6875 25.71875 L 52.550781 22.957031 C 52.300781 22.347656 51.605469 22.054688 51 22.308594 C 50.394531 22.5625 50.105469 23.261719 50.355469 23.871094 Z M 51.492188 26.636719 " fill-opacity="1" fill-rule="nonzero"/><path fill="#f50057" d="M 22.859375 38.261719 C 23.464844 38.011719 23.75 37.308594 23.5 36.699219 C 23.25 36.089844 22.554688 35.800781 21.949219 36.050781 C 21.34375 36.304688 21.054688 37.003906 21.304688 37.617188 C 21.558594 38.226562 22.25 38.515625 22.859375 38.261719 Z M 22.859375 38.261719 " fill-opacity="1" fill-rule="nonzero"/><path fill="#f50057" d="M 26.421875 36.773438 C 27.027344 36.523438 27.316406 35.820312 27.066406 35.210938 C 26.8125 34.601562 26.121094 34.3125 25.515625 34.5625 C 24.90625 34.816406 24.621094 35.515625 24.871094 36.128906 C 25.121094 36.738281 25.816406 37.027344 26.421875 36.773438 Z M 26.421875 36.773438 " fill-opacity="1" fill-rule="nonzero"/><path fill="#f50057" d="M 29.988281 35.285156 C 30.59375 35.035156 30.882812 34.335938 30.628906 33.722656 C 30.378906 33.113281 29.683594 32.824219 29.078125 33.078125 C 28.472656 33.328125 28.1875 34.027344 28.4375 34.640625 C 28.6875 35.25 29.382812 35.539062 29.988281 35.285156 Z M 29.988281 35.285156 " fill-opacity="1" fill-rule="nonzero"/><path fill="#f50057" d="M 33.554688 33.800781 C 34.160156 33.546875 34.445312 32.847656 34.195312 32.234375 C 33.945312 31.625 33.25 31.335938 32.644531 31.589844 C 32.039062 31.839844 31.75 32.539062 32 33.152344 C 32.253906 33.761719 32.945312 34.050781 33.554688 33.800781 Z M 33.554688 33.800781 " fill-opacity="1" fill-rule="nonzero"/><path fill="#f50057" d="M 37.117188 32.3125 C 37.722656 32.058594 38.011719 31.359375 37.761719 30.746094 C 37.511719 30.136719 36.816406 29.847656 36.210938 30.101562 C 35.605469 30.351562 35.316406 31.054688 35.566406 31.664062 C 35.816406 32.273438 36.511719 32.5625 37.117188 32.3125 Z M 37.117188 32.3125 " fill-opacity="1" fill-rule="nonzero"/><path fill="#f50057" d="M 40.683594 30.824219 C 41.289062 30.570312 41.578125 29.871094 41.324219 29.261719 C 41.074219 28.648438 40.378906 28.359375 39.773438 28.613281 C 39.167969 28.863281 38.882812 29.566406 39.132812 30.175781 C 39.382812 30.785156 40.078125 31.074219 40.683594 30.824219 Z M 40.683594 30.824219 " fill-opacity="1" fill-rule="nonzero"/><path fill="#f50057" d="M 44.25 29.335938 C 44.855469 29.082031 45.140625 28.382812 44.890625 27.773438 C 44.640625 27.160156 43.945312 26.871094 43.339844 27.125 C 42.734375 27.378906 42.445312 28.078125 42.695312 28.6875 C 42.949219 29.296875 43.644531 29.585938 44.25 29.335938 Z M 44.25 29.335938 " fill-opacity="1" fill-rule="nonzero"/><path fill="#f50057" d="M 47.8125 27.847656 C 48.417969 27.59375 48.707031 26.894531 48.457031 26.285156 C 48.207031 25.671875 47.511719 25.382812 46.90625 25.636719 C 46.300781 25.890625 46.011719 26.589844 46.261719 27.199219 C 46.511719 27.808594 47.207031 28.101562 47.8125 27.847656 Z M 47.8125 27.847656 " fill-opacity="1" fill-rule="nonzero"/><g clip-path="url(#9413b6228f)"><path fill="#f50057" d="M 73.992188 65.277344 L 0.675781 65.277344 C 0.0195312 65.277344 -0.511719 65.8125 -0.511719 66.472656 C -0.511719 67.136719 0.0195312 67.671875 0.675781 67.671875 L 73.992188 67.671875 C 74.648438 67.671875 75.179688 67.136719 75.179688 66.472656 C 75.179688 65.8125 74.648438 65.277344 73.992188 65.277344 Z M 73.992188 65.277344 " fill-opacity="1" fill-rule="nonzero"/></g></svg>