<svg xmlns="http://www.w3.org/2000/svg" xmlns:xlink="http://www.w3.org/1999/xlink" width="100" zoomAndPan="magnify" viewBox="0 0 75 74.999997" height="100" preserveAspectRatio="xMidYMid meet" version="1.0"><defs><clipPath id="98c22abb73"><path d="M 7.5 3 L 42 3 L 42 72.457031 L 7.5 72.457031 Z M 7.5 3 " clip-rule="nonzero"/></clipPath><clipPath id="7b2f703ac9"><path d="M 44.441406 37.5 L 57.191406 37.5 L 57.191406 72 L 44.441406 72 Z M 44.441406 37.5 " clip-rule="nonzero"/></clipPath><clipPath id="194e99bcea"><path d="M 42.148438 2.707031 L 59.398438 2.707031 L 59.398438 34.207031 L 42.148438 34.207031 Z M 42.148438 2.707031 " clip-rule="nonzero"/></clipPath></defs><g clip-path="url(#98c22abb73)"><path fill="#f50057" d="M 22.746094 4.25 L 8.605469 18.542969 C 8.339844 18.8125 8.132812 19.121094 7.988281 19.472656 C 7.847656 19.824219 7.773438 20.191406 7.773438 20.570312 C 7.773438 20.953125 7.847656 21.316406 7.988281 21.667969 C 8.132812 22.023438 8.339844 22.332031 8.605469 22.601562 C 8.871094 22.871094 9.179688 23.078125 9.527344 23.222656 C 9.875 23.367188 10.238281 23.441406 10.613281 23.441406 C 10.988281 23.441406 11.351562 23.367188 11.699219 23.222656 C 12.046875 23.078125 12.355469 22.871094 12.621094 22.601562 L 21.921875 13.195312 L 21.921875 69.167969 C 21.921875 69.546875 21.992188 69.910156 22.136719 70.261719 C 22.28125 70.613281 22.484375 70.921875 22.75 71.1875 C 23.015625 71.457031 23.320312 71.664062 23.667969 71.808594 C 24.015625 71.953125 24.375 72.027344 24.75 72.027344 C 25.125 72.027344 25.484375 71.953125 25.832031 71.808594 C 26.179688 71.664062 26.484375 71.457031 26.75 71.1875 C 27.015625 70.921875 27.21875 70.613281 27.363281 70.261719 C 27.507812 69.910156 27.578125 69.546875 27.578125 69.167969 L 27.578125 13.195312 L 36.882812 22.601562 C 37.148438 22.867188 37.457031 23.074219 37.804688 23.21875 C 38.152344 23.363281 38.511719 23.4375 38.890625 23.4375 C 39.265625 23.4375 39.628906 23.363281 39.976562 23.21875 C 40.324219 23.074219 40.628906 22.867188 40.898438 22.601562 C 41.160156 22.332031 41.363281 22.019531 41.503906 21.667969 C 41.644531 21.316406 41.71875 20.949219 41.71875 20.570312 C 41.71875 20.191406 41.644531 19.828125 41.503906 19.476562 C 41.363281 19.125 41.160156 18.8125 40.898438 18.542969 L 26.757812 4.25 C 26.488281 3.984375 26.183594 3.777344 25.835938 3.636719 C 25.488281 3.492188 25.125 3.417969 24.75 3.417969 C 24.375 3.417969 24.011719 3.492188 23.664062 3.636719 C 23.316406 3.777344 23.011719 3.984375 22.742188 4.25 Z M 22.746094 4.25 " fill-opacity="1" fill-rule="nonzero"/></g><g clip-path="url(#7b2f703ac9)"><path fill="#f50057" d="M 55.644531 68.949219 L 52.441406 68.949219 L 52.441406 39.148438 C 52.441406 38.839844 52.355469 38.554688 52.179688 38.300781 C 52.007812 38.042969 51.777344 37.855469 51.484375 37.738281 C 51.195312 37.621094 50.898438 37.589844 50.589844 37.652344 C 50.28125 37.710938 50.019531 37.851562 49.796875 38.070312 L 45.042969 42.746094 C 44.898438 42.890625 44.785156 43.054688 44.707031 43.242188 C 44.628906 43.429688 44.589844 43.625 44.589844 43.828125 C 44.589844 44.027344 44.628906 44.222656 44.707031 44.410156 C 44.785156 44.597656 44.898438 44.761719 45.042969 44.90625 C 45.1875 45.046875 45.355469 45.160156 45.546875 45.234375 C 45.734375 45.3125 45.933594 45.351562 46.140625 45.351562 C 46.34375 45.351562 46.542969 45.3125 46.730469 45.234375 C 46.921875 45.160156 47.089844 45.046875 47.234375 44.90625 L 49.34375 42.832031 L 49.34375 68.949219 L 46.140625 68.949219 C 45.933594 68.949219 45.734375 68.988281 45.546875 69.066406 C 45.355469 69.140625 45.1875 69.253906 45.042969 69.394531 C 44.898438 69.539062 44.785156 69.703125 44.707031 69.890625 C 44.628906 70.078125 44.589844 70.273438 44.589844 70.472656 C 44.589844 70.675781 44.628906 70.871094 44.707031 71.058594 C 44.785156 71.246094 44.898438 71.410156 45.042969 71.554688 C 45.1875 71.695312 45.355469 71.804688 45.546875 71.882812 C 45.734375 71.960938 45.933594 72 46.140625 72 L 55.644531 72 C 55.851562 72 56.050781 71.960938 56.238281 71.882812 C 56.429688 71.804688 56.597656 71.695312 56.742188 71.554688 C 56.886719 71.410156 57 71.246094 57.078125 71.058594 C 57.15625 70.871094 57.195312 70.675781 57.195312 70.472656 C 57.195312 70.273438 57.15625 70.078125 57.078125 69.890625 C 57 69.703125 56.886719 69.539062 56.742188 69.394531 C 56.597656 69.253906 56.429688 69.140625 56.238281 69.066406 C 56.050781 68.988281 55.851562 68.949219 55.644531 68.949219 Z M 55.644531 68.949219 " fill-opacity="1" fill-rule="nonzero"/></g><g clip-path="url(#194e99bcea)"><path fill="#f50057" d="M 51.925781 19.988281 C 52.769531 19.863281 53.554688 19.597656 54.125 19.242188 C 54.613281 18.941406 55.0625 18.554688 55.367188 18.0625 C 55.792969 17.375 55.90625 16.535156 55.9375 15.722656 C 56.050781 12.609375 55.582031 8.441406 53.050781 6.296875 C 52.097656 5.488281 50.839844 5.011719 49.601562 5.125 C 47.277344 5.34375 45.675781 8.015625 45.171875 10.113281 C 44.792969 11.699219 44.96875 13.355469 45.15625 14.972656 C 45.308594 16.300781 45.609375 17.382812 46.511719 18.382812 C 47.8125 19.820312 50.066406 20.265625 51.925781 19.988281 Z M 55.828125 22.300781 C 55.84375 22.210938 55.863281 22.121094 55.878906 22.03125 C 55.507812 22.324219 55.074219 22.503906 54.597656 22.613281 C 52.910156 22.996094 51.152344 23.085938 49.429688 22.886719 C 47.800781 22.695312 46.746094 22.050781 45.394531 21.179688 C 44.703125 20.5 44.25 19.824219 43.730469 18.964844 C 41.824219 15.816406 41.785156 11.988281 42.847656 8.484375 C 43.203125 7.308594 43.929688 6.335938 44.621094 5.328125 C 45.875 3.5 48.429688 2.660156 50.597656 2.707031 C 51.777344 2.734375 53.023438 2.730469 54.109375 3.246094 C 55.183594 3.757812 56.019531 4.679688 56.617188 5.699219 C 58.203125 8.394531 59.09375 11.433594 59.300781 14.539062 C 59.515625 17.722656 59.441406 21.1875 58.5 24.273438 C 57.835938 26.441406 57.152344 28.644531 55.847656 30.511719 C 53.851562 33.375 49.40625 35.371094 46.0625 33.441406 C 45.292969 33 44.53125 32.449219 44.1875 31.640625 C 43.472656 29.949219 44.976562 27.949219 46.960938 29.511719 C 47.625 30.039062 48.714844 30.585938 49.578125 30.605469 C 52.675781 30.671875 54.355469 27.722656 55.238281 25.089844 C 55.539062 24.195312 55.660156 23.230469 55.828125 22.300781 " fill-opacity="1" fill-rule="nonzero"/></g></svg>