<svg xmlns="http://www.w3.org/2000/svg" xmlns:xlink="http://www.w3.org/1999/xlink" width="100" zoomAndPan="magnify" viewBox="0 0 75 74.999997" height="100" preserveAspectRatio="xMidYMid meet" version="1.0"><defs><clipPath id="7f747f156a"><path d="M 0 11.296875 L 75 11.296875 L 75 63.796875 L 0 63.796875 Z M 0 11.296875 " clip-rule="nonzero"/></clipPath></defs><g clip-path="url(#7f747f156a)"><path fill="#f50057" d="M 37.511719 11.292969 L 37.539062 11.292969 C 37.660156 11.296875 37.785156 11.316406 37.910156 11.351562 C 37.910156 11.351562 42.824219 12.867188 48.5 14.617188 C 59.628906 18.046875 68.78125 26.046875 73.683594 36.625 C 74.945312 39.347656 74.308594 42.574219 72.109375 44.609375 L 66.347656 49.933594 L 66.347656 50.699219 C 66.347656 50.925781 66.347656 51.15625 66.347656 51.382812 L 66.347656 51.960938 C 66.351562 52.082031 66.335938 52.207031 66.304688 52.328125 L 66.300781 52.34375 C 66.292969 52.367188 66.285156 52.390625 66.277344 52.414062 C 66.25 52.496094 65.992188 53.253906 65.695312 54.121094 C 64.898438 56.460938 63.199219 58.378906 60.96875 59.449219 C 57.113281 61.261719 49.597656 63.796875 37.523438 63.796875 C 26.371094 63.796875 18.421875 61.15625 14.261719 59.339844 C 11.910156 58.300781 10.097656 56.324219 9.269531 53.886719 L 8.769531 52.414062 C 8.761719 52.390625 8.753906 52.367188 8.75 52.34375 L 8.746094 52.328125 C 8.710938 52.207031 8.695312 52.082031 8.699219 51.960938 L 8.699219 49.933594 L 2.941406 44.609375 C 0.738281 42.574219 0.101562 39.347656 1.363281 36.625 C 6.265625 26.046875 15.417969 18.046875 26.546875 14.617188 C 32.222656 12.867188 37.140625 11.351562 37.140625 11.351562 C 37.261719 11.316406 37.386719 11.296875 37.511719 11.292969 Z M 63.457031 52.5625 C 60.785156 51.058594 51.855469 46.734375 37.523438 46.734375 C 23.1875 46.734375 14.261719 51.0625 11.589844 52.5625 L 11.75 53.039062 C 12.34375 54.78125 13.636719 56.195312 15.3125 56.933594 C 19.28125 58.667969 26.875 61.171875 37.523438 61.171875 C 49.023438 61.171875 56.183594 58.800781 59.84375 57.078125 C 61.433594 56.316406 62.648438 54.945312 63.214844 53.273438 C 63.300781 53.023438 63.382812 52.78125 63.457031 52.5625 Z M 63.726562 49.730469 L 63.726562 45.441406 C 63.726562 43.199219 62.578125 41.109375 60.695312 39.910156 C 56.496094 37.277344 48.640625 33.609375 37.523438 33.609375 C 26.40625 33.609375 18.550781 37.277344 14.359375 39.902344 C 12.464844 41.105469 11.320312 43.199219 11.320312 45.441406 L 11.320312 49.730469 C 15.097656 47.789062 24.039062 44.109375 37.523438 44.109375 C 51.007812 44.109375 59.949219 47.789062 63.726562 49.730469 Z M 37.523438 13.980469 L 27.316406 17.125 C 16.898438 20.339844 8.332031 27.824219 3.742188 37.730469 C 2.957031 39.417969 3.351562 41.417969 4.71875 42.679688 L 8.699219 46.363281 L 8.699219 45.441406 C 8.699219 42.296875 10.304688 39.371094 12.960938 37.679688 C 17.414062 34.894531 25.738281 30.984375 37.523438 30.984375 C 49.3125 30.984375 57.636719 34.894531 62.089844 37.6875 C 64.742188 39.375 66.347656 42.300781 66.347656 45.441406 C 66.347656 45.746094 66.347656 46.054688 66.347656 46.363281 L 70.328125 42.679688 C 71.695312 41.417969 72.089844 39.417969 71.308594 37.730469 C 66.71875 27.824219 58.148438 20.339844 47.730469 17.125 Z M 32.121094 23.109375 C 32.703125 20.84375 34.757812 19.171875 37.195312 19.171875 C 39.636719 19.171875 41.6875 20.84375 42.273438 23.109375 L 48.332031 23.109375 C 49.058594 23.109375 49.644531 23.695312 49.644531 24.421875 C 49.644531 25.144531 49.058594 25.734375 48.332031 25.734375 L 45.058594 25.734375 C 45.78125 25.734375 46.367188 26.320312 46.367188 27.046875 C 46.367188 27.769531 45.78125 28.359375 45.058594 28.359375 L 41.128906 28.359375 C 40.988281 28.359375 40.855469 28.335938 40.730469 28.296875 C 39.796875 29.148438 38.558594 29.671875 37.195312 29.671875 C 35.867188 29.671875 34.65625 29.175781 33.730469 28.359375 L 29.988281 28.359375 C 29.265625 28.359375 28.679688 27.769531 28.679688 27.046875 C 28.679688 26.320312 29.265625 25.734375 29.988281 25.734375 L 26.714844 25.734375 C 25.992188 25.734375 25.402344 25.144531 25.402344 24.421875 C 25.402344 23.695312 25.992188 23.109375 26.714844 23.109375 Z M 37.195312 21.796875 C 38.644531 21.796875 39.816406 22.972656 39.816406 24.421875 C 39.816406 25.871094 38.644531 27.046875 37.195312 27.046875 C 35.75 27.046875 34.574219 25.871094 34.574219 24.421875 C 34.574219 22.972656 35.75 21.796875 37.195312 21.796875 Z M 37.195312 21.796875 " fill-opacity="1" fill-rule="evenodd"/></g></svg>